<mxfile host="app.diagrams.net" modified="2023-10-24T15:58:05.587Z" agent="Mozilla/5.0 (Windows NT 10.0; Win64; x64) AppleWebKit/537.36 (KHTML, like Gecko) Chrome/118.0.0.0 Safari/537.36 Edg/118.0.2088.46" etag="OMLa1796crG_Z4aHhCy6" version="22.0.6" type="device">
  <diagram id="C5RBs43oDa-KdzZeNtuy" name="Page-1">
    <mxGraphModel dx="1462" dy="691" grid="1" gridSize="10" guides="1" tooltips="1" connect="1" arrows="1" fold="1" page="1" pageScale="1" pageWidth="827" pageHeight="1169" math="0" shadow="0">
      <root>
        <mxCell id="WIyWlLk6GJQsqaUBKTNV-0" />
        <mxCell id="WIyWlLk6GJQsqaUBKTNV-1" parent="WIyWlLk6GJQsqaUBKTNV-0" />
        <mxCell id="IOtejKmauGlHb39Z3grb-3" value="" style="edgeStyle=orthogonalEdgeStyle;rounded=0;orthogonalLoop=1;jettySize=auto;html=1;" edge="1" parent="WIyWlLk6GJQsqaUBKTNV-1" source="WIyWlLk6GJQsqaUBKTNV-3" target="IOtejKmauGlHb39Z3grb-1">
          <mxGeometry relative="1" as="geometry" />
        </mxCell>
        <mxCell id="WIyWlLk6GJQsqaUBKTNV-3" value="connected" style="rectangle;whiteSpace=wrap;html=1;fontSize=12;glass=0;strokeWidth=1;shadow=0;" parent="WIyWlLk6GJQsqaUBKTNV-1" vertex="1">
          <mxGeometry x="201" y="132" width="120" height="40" as="geometry" />
        </mxCell>
        <mxCell id="6qPAtsnJxMh4qHb9oPS_-33" style="edgeStyle=orthogonalEdgeStyle;rounded=0;orthogonalLoop=1;jettySize=auto;html=1;exitX=0.5;exitY=1;exitDx=0;exitDy=0;entryX=0.5;entryY=0;entryDx=0;entryDy=0;" parent="WIyWlLk6GJQsqaUBKTNV-1" source="6qPAtsnJxMh4qHb9oPS_-1" target="6qPAtsnJxMh4qHb9oPS_-32" edge="1">
          <mxGeometry relative="1" as="geometry" />
        </mxCell>
        <mxCell id="6qPAtsnJxMh4qHb9oPS_-1" value="receive message" style="rectangle;whiteSpace=wrap;html=1;fontSize=12;glass=0;strokeWidth=1;shadow=0;" parent="WIyWlLk6GJQsqaUBKTNV-1" vertex="1">
          <mxGeometry x="201" y="261" width="120" height="47" as="geometry" />
        </mxCell>
        <mxCell id="6qPAtsnJxMh4qHb9oPS_-8" style="edgeStyle=orthogonalEdgeStyle;rounded=0;orthogonalLoop=1;jettySize=auto;html=1;exitX=0.5;exitY=1;exitDx=0;exitDy=0;entryX=0.5;entryY=0;entryDx=0;entryDy=0;" parent="WIyWlLk6GJQsqaUBKTNV-1" source="6qPAtsnJxMh4qHb9oPS_-7" target="WIyWlLk6GJQsqaUBKTNV-3" edge="1">
          <mxGeometry relative="1" as="geometry" />
        </mxCell>
        <mxCell id="6qPAtsnJxMh4qHb9oPS_-7" value="start socket" style="rectangle;whiteSpace=wrap;html=1;fontSize=12;glass=0;strokeWidth=1;shadow=0;" parent="WIyWlLk6GJQsqaUBKTNV-1" vertex="1">
          <mxGeometry x="201" y="62" width="120" height="40" as="geometry" />
        </mxCell>
        <mxCell id="6qPAtsnJxMh4qHb9oPS_-9" value="TCP&lt;br&gt;Server" style="text;html=1;strokeColor=none;fillColor=none;align=center;verticalAlign=middle;whiteSpace=wrap;rounded=0;" parent="WIyWlLk6GJQsqaUBKTNV-1" vertex="1">
          <mxGeometry x="231" y="20" width="60" height="30" as="geometry" />
        </mxCell>
        <mxCell id="6qPAtsnJxMh4qHb9oPS_-41" value="" style="edgeStyle=orthogonalEdgeStyle;rounded=0;orthogonalLoop=1;jettySize=auto;html=1;entryX=0;entryY=0.5;entryDx=0;entryDy=0;" parent="WIyWlLk6GJQsqaUBKTNV-1" source="6qPAtsnJxMh4qHb9oPS_-32" target="6qPAtsnJxMh4qHb9oPS_-85" edge="1">
          <mxGeometry relative="1" as="geometry">
            <mxPoint x="162" y="367" as="targetPoint" />
          </mxGeometry>
        </mxCell>
        <mxCell id="6qPAtsnJxMh4qHb9oPS_-42" value="Yes" style="edgeLabel;html=1;align=center;verticalAlign=middle;resizable=0;points=[];" parent="6qPAtsnJxMh4qHb9oPS_-41" vertex="1" connectable="0">
          <mxGeometry x="-0.1308" relative="1" as="geometry">
            <mxPoint x="-6" y="-9" as="offset" />
          </mxGeometry>
        </mxCell>
        <mxCell id="6qPAtsnJxMh4qHb9oPS_-56" style="edgeStyle=orthogonalEdgeStyle;rounded=0;orthogonalLoop=1;jettySize=auto;html=1;exitX=0.5;exitY=1;exitDx=0;exitDy=0;entryX=0.5;entryY=0;entryDx=0;entryDy=0;" parent="WIyWlLk6GJQsqaUBKTNV-1" source="6qPAtsnJxMh4qHb9oPS_-32" target="6qPAtsnJxMh4qHb9oPS_-55" edge="1">
          <mxGeometry relative="1" as="geometry" />
        </mxCell>
        <mxCell id="6qPAtsnJxMh4qHb9oPS_-57" value="No" style="edgeLabel;html=1;align=center;verticalAlign=middle;resizable=0;points=[];" parent="6qPAtsnJxMh4qHb9oPS_-56" vertex="1" connectable="0">
          <mxGeometry x="-0.2569" y="1" relative="1" as="geometry">
            <mxPoint x="-12" as="offset" />
          </mxGeometry>
        </mxCell>
        <mxCell id="6qPAtsnJxMh4qHb9oPS_-32" value="is end message" style="rhombus;whiteSpace=wrap;html=1;" parent="WIyWlLk6GJQsqaUBKTNV-1" vertex="1">
          <mxGeometry x="201" y="341" width="121" height="52" as="geometry" />
        </mxCell>
        <mxCell id="6qPAtsnJxMh4qHb9oPS_-83" value="" style="edgeStyle=orthogonalEdgeStyle;rounded=0;orthogonalLoop=1;jettySize=auto;html=1;" parent="WIyWlLk6GJQsqaUBKTNV-1" source="6qPAtsnJxMh4qHb9oPS_-55" target="6qPAtsnJxMh4qHb9oPS_-82" edge="1">
          <mxGeometry relative="1" as="geometry" />
        </mxCell>
        <mxCell id="6qPAtsnJxMh4qHb9oPS_-84" value="Yes" style="edgeLabel;html=1;align=center;verticalAlign=middle;resizable=0;points=[];" parent="6qPAtsnJxMh4qHb9oPS_-83" vertex="1" connectable="0">
          <mxGeometry x="-0.2321" y="1" relative="1" as="geometry">
            <mxPoint x="-3" y="-7" as="offset" />
          </mxGeometry>
        </mxCell>
        <mxCell id="6qPAtsnJxMh4qHb9oPS_-87" value="" style="edgeStyle=orthogonalEdgeStyle;rounded=0;orthogonalLoop=1;jettySize=auto;html=1;" parent="WIyWlLk6GJQsqaUBKTNV-1" source="6qPAtsnJxMh4qHb9oPS_-55" target="6qPAtsnJxMh4qHb9oPS_-79" edge="1">
          <mxGeometry relative="1" as="geometry" />
        </mxCell>
        <mxCell id="6qPAtsnJxMh4qHb9oPS_-55" value="is num-1 equal 0" style="rhombus;whiteSpace=wrap;html=1;" parent="WIyWlLk6GJQsqaUBKTNV-1" vertex="1">
          <mxGeometry x="201" y="426" width="121" height="52" as="geometry" />
        </mxCell>
        <mxCell id="6qPAtsnJxMh4qHb9oPS_-92" style="edgeStyle=orthogonalEdgeStyle;rounded=0;orthogonalLoop=1;jettySize=auto;html=1;exitX=0;exitY=0.5;exitDx=0;exitDy=0;entryX=0;entryY=0.5;entryDx=0;entryDy=0;" parent="WIyWlLk6GJQsqaUBKTNV-1" source="6qPAtsnJxMh4qHb9oPS_-79" target="6qPAtsnJxMh4qHb9oPS_-1" edge="1">
          <mxGeometry relative="1" as="geometry">
            <Array as="points">
              <mxPoint x="150" y="517" />
              <mxPoint x="150" y="284" />
            </Array>
          </mxGeometry>
        </mxCell>
        <mxCell id="6qPAtsnJxMh4qHb9oPS_-79" value="send num-1" style="whiteSpace=wrap;html=1;" parent="WIyWlLk6GJQsqaUBKTNV-1" vertex="1">
          <mxGeometry x="206.5" y="498" width="110" height="38" as="geometry" />
        </mxCell>
        <mxCell id="6qPAtsnJxMh4qHb9oPS_-86" value="" style="edgeStyle=orthogonalEdgeStyle;rounded=0;orthogonalLoop=1;jettySize=auto;html=1;" parent="WIyWlLk6GJQsqaUBKTNV-1" source="6qPAtsnJxMh4qHb9oPS_-82" target="6qPAtsnJxMh4qHb9oPS_-85" edge="1">
          <mxGeometry relative="1" as="geometry" />
        </mxCell>
        <mxCell id="6qPAtsnJxMh4qHb9oPS_-82" value="send end message" style="whiteSpace=wrap;html=1;" parent="WIyWlLk6GJQsqaUBKTNV-1" vertex="1">
          <mxGeometry x="359" y="433" width="110" height="38" as="geometry" />
        </mxCell>
        <mxCell id="IOtejKmauGlHb39Z3grb-12" value="" style="edgeStyle=orthogonalEdgeStyle;rounded=0;orthogonalLoop=1;jettySize=auto;html=1;" edge="1" parent="WIyWlLk6GJQsqaUBKTNV-1" source="6qPAtsnJxMh4qHb9oPS_-85" target="IOtejKmauGlHb39Z3grb-10">
          <mxGeometry relative="1" as="geometry" />
        </mxCell>
        <mxCell id="6qPAtsnJxMh4qHb9oPS_-85" value="Terminate Server" style="whiteSpace=wrap;html=1;" parent="WIyWlLk6GJQsqaUBKTNV-1" vertex="1">
          <mxGeometry x="359" y="348" width="110" height="38" as="geometry" />
        </mxCell>
        <mxCell id="IOtejKmauGlHb39Z3grb-7" style="edgeStyle=orthogonalEdgeStyle;rounded=0;orthogonalLoop=1;jettySize=auto;html=1;exitX=0.5;exitY=1;exitDx=0;exitDy=0;entryX=0.5;entryY=0;entryDx=0;entryDy=0;" edge="1" parent="WIyWlLk6GJQsqaUBKTNV-1" source="IOtejKmauGlHb39Z3grb-1" target="6qPAtsnJxMh4qHb9oPS_-1">
          <mxGeometry relative="1" as="geometry" />
        </mxCell>
        <mxCell id="IOtejKmauGlHb39Z3grb-1" value="thread locked" style="rectangle;whiteSpace=wrap;html=1;fontSize=12;glass=0;strokeWidth=1;shadow=0;" vertex="1" parent="WIyWlLk6GJQsqaUBKTNV-1">
          <mxGeometry x="201" y="200" width="120" height="40" as="geometry" />
        </mxCell>
        <mxCell id="IOtejKmauGlHb39Z3grb-10" value="thread release" style="whiteSpace=wrap;html=1;" vertex="1" parent="WIyWlLk6GJQsqaUBKTNV-1">
          <mxGeometry x="490" y="348" width="110" height="38" as="geometry" />
        </mxCell>
      </root>
    </mxGraphModel>
  </diagram>
</mxfile>
